<svg width="35" height="35" viewBox="0 0 35 35" fill="none" xmlns="http://www.w3.org/2000/svg">
<path d="M12.5181 27.1533L12.5181 27.1533C12.5209 27.1526 12.5238 27.1519 12.5266 27.1512C12.5458 27.1464 12.5649 27.1417 12.5838 27.137C12.9086 27.0561 13.1961 26.9846 13.4572 26.8367C13.7182 26.6889 13.9276 26.4792 14.164 26.2422C14.1798 26.2264 14.1957 26.2104 14.2118 26.1943L24.7032 15.703L24.7371 15.6691C25.1942 15.212 25.588 14.8182 25.861 14.4604C26.1536 14.077 26.3751 13.6506 26.3751 13.125C26.3751 12.5994 26.1536 12.173 25.861 11.7896C25.588 11.4318 25.1942 11.038 24.7371 10.5809L24.7032 10.547L24.453 10.2968L24.419 10.2629C23.962 9.80577 23.5682 9.41192 23.2104 9.13894C22.827 8.8464 22.4005 8.62489 21.875 8.62489C21.3494 8.62489 20.9229 8.8464 20.5395 9.13894C20.1817 9.41192 19.7879 9.80576 19.3309 10.2629L19.297 10.2968L8.80561 20.7882L8.80561 20.7882C8.78953 20.8042 8.77357 20.8202 8.75772 20.836C8.52079 21.0724 8.31104 21.2817 8.16322 21.5428C8.01539 21.8039 7.94383 22.0914 7.86299 22.4162C7.85759 22.438 7.85214 22.4598 7.84663 22.4819L6.87898 26.3525C6.87575 26.3654 6.8725 26.3784 6.86923 26.3914C6.81201 26.6199 6.75089 26.864 6.73084 27.0689C6.70876 27.2946 6.71391 27.6753 7.0193 27.9807C7.32469 28.2861 7.7054 28.2912 7.93105 28.2691C8.13599 28.2491 8.38001 28.188 8.6085 28.1307C8.62154 28.1275 8.63454 28.1242 8.64747 28.121L12.5181 27.1533Z" stroke="#1BC67E" stroke-width="1.45833"/>
<path d="M18.2291 10.9377L22.6041 8.021L26.9791 12.396L24.0625 16.771L18.2291 10.9377Z" fill="#1BC67E"/>
</svg>
