<svg width="19" height="24" viewBox="0 0 19 24" fill="none" xmlns="http://www.w3.org/2000/svg">
<path d="M3.99 0C2.93179 0 1.91691 0.408445 1.16864 1.13548C0.420374 1.86252 0 2.84859 0 3.87678V23.0761C0.000180594 23.2459 0.048608 23.4125 0.139949 23.5573C0.231291 23.7022 0.362003 23.8197 0.517691 23.897C0.67338 23.9743 0.848005 24.0084 1.02234 23.9955C1.19667 23.9825 1.36395 23.9231 1.50575 23.8237L9.5 18.2162L17.4943 23.8256C17.6362 23.925 17.8036 23.9845 17.9781 23.9974C18.1526 24.0102 18.3274 23.976 18.4832 23.8985C18.6389 23.8209 18.7696 23.7031 18.8608 23.558C18.952 23.4129 19.0002 23.2461 19 23.0761V3.87678C19 2.84859 18.5796 1.86252 17.8314 1.13548C17.0831 0.408445 16.0682 0 15.01 0H3.99Z" fill="#D55555"/>
</svg>
