<svg width="35" height="35" viewBox="0 0 35 35" fill="none" xmlns="http://www.w3.org/2000/svg">
<path d="M13.8541 21.146L13.8541 16.771" stroke="#E21F1F" stroke-linecap="round"/>
<path d="M21.1459 21.146L21.1459 16.771" stroke="#E21F1F" stroke-linecap="round"/>
<path d="M4.375 9.479H30.625H29.5208C27.6352 9.479 26.6924 9.479 26.1066 10.0648C25.5208 10.6506 25.5208 11.5934 25.5208 13.479V24.4373C25.5208 26.323 25.5208 27.2658 24.935 27.8516C24.3493 28.4373 23.4065 28.4373 21.5208 28.4373H13.4792C11.5935 28.4373 10.6507 28.4373 10.065 27.8516C9.47917 27.2658 9.47917 26.323 9.47917 24.4373V13.479C9.47917 11.5934 9.47917 10.6506 8.89338 10.0648C8.30759 9.479 7.36478 9.479 5.47917 9.479H4.375Z" stroke="#E21F1F" stroke-linecap="round"/>
<path d="M13.8542 5.10468C13.8542 5.10468 14.5834 3.646 17.5 3.646C20.4167 3.646 21.1459 5.10433 21.1459 5.10433" stroke="#E21F1F" stroke-linecap="round"/>
</svg>
