<svg width="34" height="30" viewBox="0 0 34 30" fill="none" xmlns="http://www.w3.org/2000/svg">
<path d="M21.9583 6.25C23.948 6.25 24.9428 6.25 25.6574 6.67133C25.9668 6.85372 26.2324 7.0881 26.4391 7.36107C26.9166 7.99163 26.9166 8.86942 26.9166 10.625V22.5C26.9166 24.857 26.9166 26.0355 26.0868 26.7678C25.2569 27.5 23.9213 27.5 21.25 27.5H12.75C10.0787 27.5 8.74304 27.5 7.91318 26.7678C7.08331 26.0355 7.08331 24.857 7.08331 22.5V10.625C7.08331 8.86942 7.08331 7.99163 7.56082 7.36107C7.76753 7.0881 8.03316 6.85372 8.34253 6.67133C9.05716 6.25 10.052 6.25 12.0416 6.25" stroke="#007BFF"/>
<path d="M12.75 6.25C12.75 4.86929 14.0185 3.75 15.5833 3.75H18.4167C19.9815 3.75 21.25 4.86929 21.25 6.25C21.25 7.63071 19.9815 8.75 18.4167 8.75H15.5833C14.0185 8.75 12.75 7.63071 12.75 6.25Z" stroke="#007BFF"/>
<path d="M12.75 15L21.25 15" stroke="#007BFF" stroke-linecap="round"/>
<path d="M12.75 20L18.4167 20" stroke="#007BFF" stroke-linecap="round"/>
</svg>
